<svg xmlns="http://www.w3.org/2000/svg" viewBox="0 0 5000 3000" id="paypal">
  <path fill="#009de2" fill-rule="evenodd" d="M662.62,1241H981.39c171.15,0,235.58,86.63,225.63,214.11-16.41,210.16-143.47,326.38-312,326.38H809.93c-23.11,0-38.66,15.27-44.94,56.77l-36.51,240.93c-2.36,15.65-10.6,24.83-23,25.94H505.62c-18.79,0-25.49-14.39-20.56-45.55l122.05-772.86C612,1255.72,629,1241,662.62,1241Z"></path>
  <path fill="#113984" fill-rule="evenodd" d="M1838.26,1226.7c107.58,0,206.8,58.31,193.21,203.75-16.11,172.4-109,268.4-255.14,268.8H1648.84c-18.38,0-27.22,14.94-32,45.7l-24.6,156.91c-3.71,23.68-15.85,35.39-33.85,35.39H1439.63c-18.94,0-25.54-12.1-21.33-39.16l98.14-629c4.82-30.91,16.65-42.42,37.63-42.42Zm-193.38,336.67,96.71,0c60.45-2.29,100.65-44.15,104.69-119.7,2.49-46.66-29-80-79.17-79.81l-91,.42-31.19,199.07ZM2354.2,1889c10.85-9.85,21.92-15,20.31-2.83l-3.87,29.16c-2,15.17,4,23.31,18.22,23.31h105.48c17.74,0,26.41-7.2,30.78-34.65l65-407.94c3.26-20.51-1.7-30.56-17.27-30.56h-116c-10.45,0-15.53,5.88-18.26,21.84l-4.3,25.11c-2.24,13.11-8.24,15.37-13.81,2.19-19.7-46.59-69.87-67.49-140.26-66-162.69,3.34-272.36,126.85-284.1,285.15-9.07,122.46,78.7,218.63,194.33,218.62,83.92,0,121.44-25,163.71-63.36Zm-88.26-62.68c-70,0-118.85-55.85-108.65-124.31s75.61-124.34,145.64-124.34,118.85,55.85,108.65,124.34-75.61,124.31-145.64,124.31Zm530.73-362.14H2690.11c-22.08,0-31.06,16.15-24,36.7l132.78,388.88-130.84,185c-10.93,15.42-2.5,29.55,12.92,29.55h120.22c17.95,0,26.69-4.58,35.72-17.55l408.42-585.84c12.56-18,6.64-36.93-14-36.94l-113.67-.12c-19.52,0-27.35,7.7-38.54,23.94l-170.36,247.13L2833,1487.36C2828.3,1472.11,2817.14,1464.21,2796.67,1464.21Z"></path>
  <path fill="#009de2" fill-rule="evenodd" d="M3670.32,1226.7c107.56,0,206.8,58.31,193.21,203.75-16.11,172.4-109,268.4-255.16,268.8H3480.88c-18.37,0-27.22,14.94-32,45.7l-24.6,156.91c-3.73,23.68-15.85,35.39-33.85,35.39H3271.69c-19,0-25.56-12.1-21.34-39.16l98.15-629c4.82-30.91,16.66-42.42,37.64-42.42Zm-193.39,336.67,96.7,0c60.47-2.29,100.67-44.15,104.7-119.7,2.5-46.66-29-80-79.16-79.81l-91.05.42-31.19,199.07ZM4186.25,1889c10.84-9.85,21.92-15,20.31-2.83l-3.86,29.16c-2,15.17,4,23.31,18.22,23.31h105.46c17.75,0,26.42-7.2,30.79-34.65l65-407.94c3.26-20.51-1.7-30.56-17.27-30.56H4289c-10.47,0-15.53,5.88-18.26,21.84l-4.3,25.11c-2.24,13.11-8.25,15.37-13.82,2.19-19.69-46.59-69.87-67.49-140.26-66-162.68,3.34-272.37,126.85-284.1,285.15-9.06,122.46,78.7,218.63,194.33,218.62,83.92,0,121.45-25,163.71-63.36ZM4098,1826.35c-70,0-118.85-55.85-108.66-124.31S4065,1577.7,4135,1577.7s118.85,55.85,108.67,124.34S4168,1826.35,4098,1826.35Zm486.5,113H4462.77c-9.67,0-16.39-7.56-14.92-16.83l107-677.6c1.46-9.26,10.57-16.83,20.24-16.83h121.73c9.68,0,16.4,7.57,14.93,16.83l-107.06,677.6C4603.28,1931.83,4594.17,1939.39,4584.5,1939.39Z"></path>
  <path fill="#113984" fill-rule="evenodd" d="M463.33,975H782.42c89.87,0,196.47,2.92,267.76,65.82,47.64,42,72.63,108.94,66.87,180.78-19.57,243.66-165.31,380.12-360.76,380.12H598.9c-26.77,0-44.53,17.76-52.08,65.82l-43.93,279.38c-2.83,18.12-10.7,28.81-25,30.09H281.28c-21.8,0-29.56-16.68-23.85-52.82L399,1028C404.65,992.11,424.29,975,463.33,975Z"></path>
  <path fill="#172c70" fill-rule="evenodd" d="M551.39,1639.39l55.72-352.7c4.89-31,21.85-45.72,55.51-45.72H981.39c52.77,0,95.41,8.25,128.83,23.42-32,216.85-172.29,337.33-356,337.33H596.89C576.17,1601.72,560.68,1612.31,551.39,1639.39Z"></path>
</svg>
